<?xml version="1.0" encoding="utf-8"?>
<!-- Generator: Adobe Illustrator 24.0.1, SVG Export Plug-In . SVG Version: 6.00 Build 0)  -->
<svg version="1.1" id="Layer_1" xmlns="http://www.w3.org/2000/svg" xmlns:xlink="http://www.w3.org/1999/xlink" x="0px" y="0px"
	 viewBox="0 0 64 64" style="enable-background:new 0 0 64 64;" xml:space="preserve">
<style type="text/css">
	.st0{fill:#CBD5E0;stroke:#EDF2F7;stroke-width:0.5;stroke-miterlimit:10;}
</style>
<path class="st0" d="M38.6,23.9l-5.9,5.4l-5.4-11l2.8-6.3c0.7-1.3,1.9-1.3,2.6,0L38.6,23.9z"/>
<path class="st0" d="M27.3,18.4l5.4,11L10.9,49.7L27.3,18.4z"/>
<path class="st0" d="M45,15.6c1-1,2.1-0.7,2.4,0.8l5.7,33.1L34.2,60.7c-0.7,0.4-2.4,0.5-2.4,0.5s-1.6-0.2-2.2-0.5l-18.7-11L45,15.6z
	"/>
<path class="st0" d="M27.3,18.4L10.9,49.7l7.3-45.8c0.3-1.4,1.1-1.6,1.8-0.3L27.3,18.4z"/>
</svg>
